<svg width="24" height="24" viewBox="0 0 24 24" fill="none" xmlns="http://www.w3.org/2000/svg">
<path fill-rule="evenodd" clip-rule="evenodd" d="M17 3.3252C17.3728 3.3252 17.6748 3.62721 17.6748 4V6.3252H20C20.3728 6.3252 20.6748 6.62721 20.6748 7C20.6748 7.37279 20.3728 7.6748 20 7.6748H17.6748V16C17.6748 16.9251 16.9251 17.6748 16 17.6748H7.6748V20C7.6748 20.3728 7.37279 20.6748 7 20.6748C6.62721 20.6748 6.3252 20.3728 6.3252 20V17.6748H4C3.62721 17.6748 3.3252 17.3728 3.3252 17C3.3252 16.6272 3.62721 16.3252 4 16.3252H6.3252V8C6.3252 7.07492 7.07492 6.3252 8 6.3252H16.3252V4C16.3252 3.62721 16.6272 3.3252 17 3.3252ZM8 7.6748C7.82051 7.6748 7.6748 7.82051 7.6748 8V16.3252H16C16.1795 16.3252 16.3252 16.1795 16.3252 16V7.6748H8Z" fill="#A7A5A5"/>
</svg>
